<?xml version="1.0" encoding="utf-8"?>
<!-- Generator: Adobe Illustrator 19.1.0, SVG Export Plug-In . SVG Version: 6.00 Build 0)  -->
<svg version="1.1" id="Layer_1" xmlns="http://www.w3.org/2000/svg" xmlns:xlink="http://www.w3.org/1999/xlink" x="0px" y="0px"
	 viewBox="0 0 135.2 131.1" style="enable-background:new 0 0 135.2 131.1;" xml:space="preserve">
<style type="text/css">
	.st0{fill:#EC1E79;}
	.st1{fill:#FFFFFF;}
</style>
<circle class="st0" cx="67.6" cy="65.5" r="60"/>
<g>
	<path class="st1" d="M51.2,65.5c-4.8,0.1-8.8,2.1-11.8,5.7h-6c-2.4,0-4.5-0.6-6.2-1.8c-1.7-1.2-2.5-3-2.5-5.3
		c0-10.5,1.8-15.8,5.5-15.8c0.2,0,0.8,0.3,1.9,0.9c1.1,0.6,2.6,1.3,4.4,1.9c1.8,0.6,3.6,1,5.3,1c2,0,4-0.3,5.9-1
		c-0.1,1.1-0.2,2.1-0.2,2.9C47.6,58.2,48.8,62.1,51.2,65.5z M50,28.9c2.2,2.2,3.3,4.9,3.3,8.1S52.2,42.8,50,45
		c-2.2,2.2-4.9,3.3-8.1,3.3c-3.2,0-5.8-1.1-8.1-3.3s-3.3-4.9-3.3-8.1s1.1-5.8,3.3-8.1c2.2-2.2,4.9-3.3,8.1-3.3
		C45.1,25.5,47.7,26.7,50,28.9z M99,94c0,3.6-1.1,6.4-3.3,8.5c-2.2,2.1-5.1,3.1-8.7,3.1h-39c-3.6,0-6.5-1-8.7-3.1
		c-2.2-2.1-3.3-4.9-3.3-8.5c0-1.6,0.1-3.1,0.2-4.6c0.1-1.5,0.3-3.1,0.6-4.9c0.3-1.7,0.7-3.4,1.2-4.8c0.5-1.5,1.1-2.9,1.9-4.4
		c0.8-1.4,1.7-2.6,2.8-3.6c1-1,2.3-1.8,3.8-2.4c1.5-0.6,3.2-0.9,5-0.9c0.3,0,0.9,0.3,1.9,1c1,0.6,2.1,1.4,3.3,2.1
		c1.2,0.8,2.8,1.5,4.8,2.1c2,0.6,4,1,6,1c2,0,4-0.3,6-1c2-0.6,3.6-1.4,4.8-2.1c1.2-0.8,2.3-1.5,3.3-2.1c1-0.6,1.6-1,1.9-1
		c1.8,0,3.5,0.3,5,0.9c1.5,0.6,2.8,1.4,3.8,2.4s2,2.2,2.8,3.6c0.8,1.4,1.4,2.9,1.9,4.4c0.5,1.5,0.9,3.1,1.2,4.8
		c0.3,1.7,0.5,3.4,0.6,4.9C99,90.9,99,92.4,99,94z M79.7,42c3.3,3.3,5,7.4,5,12.1s-1.7,8.8-5,12.1c-3.3,3.3-7.4,5-12.1,5
		c-4.7,0-8.8-1.7-12.1-5c-3.3-3.3-5-7.4-5-12.1s1.7-8.8,5-12.1c3.3-3.3,7.4-5,12.1-5C72.3,37,76.4,38.6,79.7,42z M101.4,28.9
		c2.2,2.2,3.3,4.9,3.3,8.1s-1.1,5.8-3.3,8.1c-2.2,2.2-4.9,3.3-8.1,3.3s-5.8-1.1-8.1-3.3s-3.3-4.9-3.3-8.1s1.1-5.8,3.3-8.1
		c2.2-2.2,4.9-3.3,8.1-3.3S99.2,26.7,101.4,28.9z M110.5,64.2c0,2.3-0.8,4.1-2.5,5.3c-1.7,1.2-3.7,1.8-6.2,1.8h-6
		c-3.1-3.7-7-5.6-11.8-5.7c2.4-3.5,3.6-7.3,3.6-11.4c0-0.9-0.1-1.8-0.2-2.9c2,0.7,3.9,1,5.9,1c1.8,0,3.5-0.3,5.3-1
		c1.8-0.6,3.2-1.3,4.4-1.9c1.1-0.6,1.8-0.9,1.9-0.9C108.6,48.4,110.5,53.6,110.5,64.2z"/>
</g>
</svg>
