<?xml version="1.0" encoding="utf-8"?>
<!-- Generator: Adobe Illustrator 19.1.0, SVG Export Plug-In . SVG Version: 6.00 Build 0)  -->
<svg version="1.1" id="Layer_1" xmlns="http://www.w3.org/2000/svg" xmlns:xlink="http://www.w3.org/1999/xlink" x="0px" y="0px"
	 viewBox="0 0 135.2 131.1" style="enable-background:new 0 0 135.2 131.1;" xml:space="preserve">
<style type="text/css">
	.st0{fill:#29ABE2;}
	.st1{fill:#FFFFFF;}
</style>
<circle class="st0" cx="67.6" cy="65" r="60"/>
<g>
	<path class="st1" d="M105.5,50.7v16.2H29.8V50.7c0-1.9,0.7-3.4,2-4.8c1.3-1.3,2.9-2,4.8-2h14.9v-6.8c0-1.1,0.4-2.1,1.2-2.9
		s1.7-1.2,2.9-1.2h24.3c1.1,0,2.1,0.4,2.9,1.2c0.8,0.8,1.2,1.7,1.2,2.9v6.8h14.9c1.9,0,3.4,0.7,4.8,2S105.5,48.8,105.5,50.7z
		 M105.5,70.9v20.3c0,1.9-0.7,3.5-2,4.8s-2.9,2-4.8,2H36.5c-1.9,0-3.5-0.7-4.8-2c-1.3-1.3-2-2.9-2-4.8V70.9h28.4v6.8
		c0,0.7,0.3,1.4,0.8,1.9c0.5,0.5,1.2,0.8,1.9,0.8h13.5c0.7,0,1.4-0.3,1.9-0.8c0.5-0.5,0.8-1.2,0.8-1.9v-6.8H105.5z M56.8,43.9h21.6
		v-5.4H56.8V43.9z M73,70.9v5.4H62.2v-5.4H73z"/>
</g>
</svg>
