<?xml version="1.0" encoding="utf-8"?>
<!-- Generator: Adobe Illustrator 19.1.0, SVG Export Plug-In . SVG Version: 6.00 Build 0)  -->
<svg version="1.1" id="Layer_1" xmlns="http://www.w3.org/2000/svg" xmlns:xlink="http://www.w3.org/1999/xlink" x="0px" y="0px"
	 viewBox="0 0 135.2 131.1" style="enable-background:new 0 0 135.2 131.1;" xml:space="preserve">
<style type="text/css">
	.st0{fill:#29ABE2;}
	.st1{fill:#FFFFFF;}
</style>
<g>
	<circle class="st0" cx="67.6" cy="65.5" r="60"/>
	<g>
		<path class="st1" d="M52.3,87.8L50.1,90c-0.3,0.3-0.6,0.4-1,0.4c-0.4,0-0.7-0.1-1-0.4L27.2,69.2c-0.3-0.3-0.4-0.6-0.4-1
			s0.1-0.7,0.4-1L48,46.4c0.3-0.3,0.6-0.4,1-0.4c0.4,0,0.7,0.1,1,0.4l2.2,2.2c0.3,0.3,0.4,0.6,0.4,1c0,0.4-0.1,0.7-0.4,1L34.8,68.2
			l17.5,17.5c0.3,0.3,0.4,0.6,0.4,1S52.6,87.5,52.3,87.8z M78.7,40.1L62,97.8c-0.1,0.4-0.4,0.7-0.7,0.9c-0.3,0.2-0.7,0.2-1,0.1
			L57.5,98c-0.4-0.1-0.7-0.4-0.9-0.7c-0.2-0.3-0.2-0.7-0.1-1.1l16.7-57.6c0.1-0.4,0.3-0.7,0.7-0.9s0.7-0.2,1-0.1l2.8,0.8
			c0.4,0.1,0.7,0.4,0.9,0.7C78.8,39.4,78.8,39.8,78.7,40.1z M108,69.2L87.2,90c-0.3,0.3-0.6,0.4-1,0.4c-0.4,0-0.7-0.1-1-0.4
			l-2.2-2.2c-0.3-0.3-0.4-0.6-0.4-1s0.1-0.7,0.4-1l17.5-17.5L82.9,50.6c-0.3-0.3-0.4-0.6-0.4-1c0-0.4,0.1-0.7,0.4-1l2.2-2.2
			c0.3-0.3,0.6-0.4,1-0.4c0.4,0,0.7,0.1,1,0.4L108,67.2c0.3,0.3,0.4,0.6,0.4,1S108.3,68.9,108,69.2z"/>
	</g>
</g>
</svg>
