<?xml version="1.0" encoding="utf-8"?>
<!-- Generator: Adobe Illustrator 16.0.0, SVG Export Plug-In . SVG Version: 6.00 Build 0)  -->
<!DOCTYPE svg PUBLIC "-//W3C//DTD SVG 1.1//EN" "http://www.w3.org/Graphics/SVG/1.1/DTD/svg11.dtd">
<svg version="1.1" id="Layer_1" xmlns="http://www.w3.org/2000/svg" xmlns:xlink="http://www.w3.org/1999/xlink" x="0px" y="0px"
	 width="595.279px" height="841.891px" viewBox="0 0 595.279 841.891" enable-background="new 0 0 595.279 841.891"
	 xml:space="preserve">
<g>
	<circle fill="none" stroke="#5BBC2E" stroke-width="2" stroke-miterlimit="10" cx="298.64" cy="421.031" r="288.039"/>
	<g>
		<path fill="#CCCCD2" d="M250.643,387.562c-2.842,9.116-7.325,18.232-13.451,27.345c-9.404,14.291-18.775,21.435-28.107,21.435
			c-3.572,0-8.68-1.167-15.31-3.5c-6.274-2.333-11.775-3.499-16.514-3.499c-4.446,0-9.626,1.205-15.53,3.609
			c-5.905,2.482-10.72,3.716-14.436,3.716c-11.085,0-22.06-9.442-32.923-28.323c-10.72-19.035-16.077-37.369-16.077-55.016
			c0-16.625,4.118-30.264,12.361-40.906c8.166-10.499,18.516-15.746,31.061-15.746c5.251,0,11.703,1.094,19.36,3.283
			c7.585,2.185,12.611,3.284,15.094,3.284c3.283,0,8.492-1.243,15.641-3.715c7.436-2.482,13.744-3.721,18.919-3.721
			c8.68,0,16.442,2.372,23.298,7.11c3.792,2.626,7.585,6.274,11.372,10.936c-5.761,4.887-9.913,9.184-12.467,12.904
			c-4.738,6.855-7.11,14.402-7.11,22.64c0,9.044,2.516,17.172,7.547,24.392C238.397,380.999,244.153,385.593,250.643,387.562z
			 M209.521,259.264c0,4.45-1.056,9.409-3.173,14.877c-2.189,5.468-5.578,10.504-10.173,15.098
			c-3.937,3.932-7.878,6.558-11.814,7.873c-2.698,0.807-6.49,1.426-11.373,1.863c0.217-10.864,3.063-20.235,8.531-28.108
			c5.396-7.801,14.508-13.197,27.345-16.188c0.071,0.221,0.163,0.624,0.273,1.205c0.105,0.586,0.201,0.984,0.273,1.205
			c0,0.293,0.02,0.658,0.058,1.095C209.501,258.611,209.521,258.976,209.521,259.264z"/>
		<path fill="#00BDFF" d="M375.877,283.436v72.077h-74.592v-61.794L375.877,283.436z M375.877,364.701v71.204l-74.592-10.283v-60.92
			H375.877z M483.282,268.673v86.839h-99.2v-73.167L483.282,268.673z M483.282,364.701v85.965l-99.2-13.673v-72.297h99.2V364.701z"
			/>
		<path fill="#B0E44F" d="M212.718,493.545c3.639,0,6.755,1.302,9.352,3.898c2.598,2.597,3.898,5.713,3.898,9.352v55.851
			c0,3.726-1.277,6.89-3.831,9.486s-5.698,3.898-9.419,3.898s-6.884-1.302-9.481-3.898c-2.597-2.597-3.897-5.756-3.897-9.486
			v-55.851c0-3.639,1.301-6.754,3.897-9.352C205.834,494.847,208.997,493.545,212.718,493.545z M320.267,443.407
			c9.266,4.763,16.668,11.411,22.213,19.938c5.54,8.53,8.31,17.863,8.31,27.992H230.644c0-10.129,2.77-19.462,8.31-27.992
			c5.54-8.526,12.991-15.175,22.343-19.938l-9.223-17.014c-0.604-1.123-0.389-1.992,0.648-2.597
			c1.123-0.519,1.992-0.265,2.597,0.777l9.353,17.144c8.223-3.64,16.927-5.454,26.105-5.454s17.882,1.814,26.105,5.454l9.347-17.144
			c0.605-1.042,1.475-1.301,2.603-0.777c1.037,0.604,1.253,1.474,0.647,2.597L320.267,443.407z M350.401,496.013v86.508
			c0,3.984-1.388,7.359-4.157,10.129c-2.771,2.775-6.102,4.158-10,4.158h-9.74v29.485c0,3.721-1.302,6.884-3.898,9.481
			c-2.597,2.602-5.761,3.902-9.486,3.902c-3.725,0-6.884-1.301-9.48-3.902c-2.598-2.598-3.898-5.757-3.898-9.481v-29.485h-17.926
			v29.485c0,3.721-1.301,6.884-3.898,9.481c-2.597,2.602-5.761,3.902-9.48,3.902c-3.64,0-6.755-1.301-9.352-3.902
			c-2.598-2.598-3.898-5.757-3.898-9.481l-0.13-29.485h-9.606c-3.984,0-7.359-1.383-10.129-4.158
			c-2.774-2.77-4.157-6.145-4.157-10.129v-86.508H350.401L350.401,496.013z M259.87,468.149c0.95,0.999,2.117,1.498,3.504,1.498
			c1.383,0,2.578-0.499,3.572-1.498c0.993-0.993,1.493-2.184,1.493-3.571c0-1.383-0.5-2.573-1.493-3.571
			c-0.999-0.994-2.189-1.493-3.572-1.493c-1.387,0-2.554,0.499-3.504,1.493c-0.956,0.998-1.431,2.188-1.431,3.571
			C258.44,465.966,258.914,467.156,259.87,468.149z M314.616,468.149c0.994,0.999,2.185,1.498,3.571,1.498
			c1.383,0,2.55-0.499,3.505-1.498c0.95-0.993,1.431-2.184,1.431-3.571c0-1.383-0.48-2.573-1.431-3.571
			c-0.955-0.994-2.122-1.493-3.505-1.493c-1.387,0-2.577,0.499-3.571,1.493c-0.999,0.998-1.498,2.188-1.498,3.571
			C313.123,465.966,313.617,467.156,314.616,468.149z M382.224,506.795v55.851c0,3.726-1.301,6.89-3.903,9.486
			c-2.597,2.597-5.756,3.898-9.48,3.898c-3.64,0-6.755-1.302-9.352-3.898c-2.598-2.597-3.898-5.756-3.898-9.486v-55.851
			c0-3.721,1.301-6.865,3.898-9.419c2.597-2.554,5.712-3.831,9.352-3.831c3.72,0,6.884,1.277,9.48,3.831
			C380.928,499.93,382.224,503.069,382.224,506.795z"/>
	</g>
</g>
</svg>
