<?xml version="1.0" encoding="utf-8"?>
<!-- Generator: Adobe Illustrator 19.1.0, SVG Export Plug-In . SVG Version: 6.00 Build 0)  -->
<svg version="1.1" id="Layer_1" xmlns="http://www.w3.org/2000/svg" xmlns:xlink="http://www.w3.org/1999/xlink" x="0px" y="0px"
	 viewBox="0 0 135.2 131.1" style="enable-background:new 0 0 135.2 131.1;" xml:space="preserve">
<style type="text/css">
	.st0{fill:#FFD112;}
	.st1{fill:#FFFFFF;}
</style>
<circle class="st0" cx="67.6" cy="65.5" r="60"/>
<g>
	<path class="st1" d="M86.3,45.5c2.8,3.5,4.2,7.3,4.2,11.5c0,4.1-1.4,8-4.2,11.5s-6.6,6.3-11.5,8.3c-4.8,2-10.1,3.1-15.8,3.1
		c-2.6,0-5.2-0.2-7.9-0.7c-3.7,2.6-7.8,4.5-12.4,5.7c-1.1,0.3-2.4,0.5-3.8,0.7h-0.1c-0.3,0-0.6-0.1-0.9-0.4
		c-0.3-0.2-0.5-0.6-0.5-0.9c0-0.1,0-0.2,0-0.3s0-0.2,0-0.3c0-0.1,0-0.2,0.1-0.3c0-0.1,0.1-0.2,0.1-0.2c0-0.1,0.1-0.1,0.2-0.2
		c0.1-0.1,0.1-0.2,0.2-0.2c0,0,0.1-0.1,0.2-0.2c0.1-0.1,0.1-0.2,0.2-0.2c0.1-0.2,0.5-0.5,1-1.1s0.9-1,1.2-1.3c0.2-0.3,0.6-0.7,1-1.3
		c0.4-0.5,0.8-1.1,1.1-1.7c0.3-0.6,0.6-1.3,0.9-2c-3.7-2.1-6.6-4.8-8.7-7.9s-3.2-6.5-3.2-10c0-4.1,1.4-8,4.2-11.5
		c2.8-3.5,6.6-6.3,11.5-8.3c4.8-2,10.1-3.1,15.8-3.1c5.7,0,10.9,1,15.8,3.1C79.7,39.2,83.5,42,86.3,45.5z M107.6,68.4
		c0,3.6-1.1,6.9-3.2,10c-2.1,3.1-5,5.7-8.7,7.9c0.3,0.7,0.6,1.4,0.9,2c0.3,0.6,0.7,1.2,1.1,1.7c0.4,0.6,0.8,1,1,1.3s0.6,0.8,1.2,1.3
		c0.5,0.6,0.9,0.9,1,1.1c0,0,0.1,0.1,0.2,0.2c0.1,0.1,0.2,0.2,0.2,0.2c0,0,0.1,0.1,0.2,0.2c0.1,0.1,0.1,0.2,0.2,0.2
		c0,0.1,0.1,0.1,0.1,0.2c0,0.1,0.1,0.2,0.1,0.3c0,0.1,0,0.2,0,0.3c0,0.1,0,0.2,0,0.3c-0.1,0.4-0.3,0.7-0.6,1s-0.6,0.3-1,0.3
		c-1.5-0.2-2.8-0.4-3.8-0.7c-4.6-1.2-8.7-3.1-12.4-5.7c-2.7,0.5-5.3,0.7-7.9,0.7c-8.1,0-15.1-2-21.1-5.9c1.7,0.1,3,0.2,3.9,0.2
		c4.8,0,9.4-0.7,13.8-2c4.4-1.3,8.3-3.3,11.8-5.8c3.7-2.7,6.6-5.9,8.6-9.5c2-3.6,3-7.4,3-11.3c0-2.3-0.3-4.6-1-6.8
		c3.8,2.1,6.9,4.8,9.1,7.9S107.6,64.7,107.6,68.4z"/>
</g>
</svg>
