<?xml version="1.0" encoding="utf-8"?>
<!-- Generator: Adobe Illustrator 19.1.0, SVG Export Plug-In . SVG Version: 6.00 Build 0)  -->
<svg version="1.1" id="Layer_1" xmlns="http://www.w3.org/2000/svg" xmlns:xlink="http://www.w3.org/1999/xlink" x="0px" y="0px"
	 viewBox="0 0 135.2 131.1" style="enable-background:new 0 0 135.2 131.1;" xml:space="preserve">
<style type="text/css">
	.st0{fill:#5BBC2E;}
	.st1{fill:#FFFFFF;}
</style>
<g>
	<circle class="st0" cx="67.6" cy="65.6" r="60"/>
	<g>
		<path class="st1" d="M85.9,78.2c0,4.6-1.5,8.5-4.4,11.8c-3,3.3-6.8,5.3-11.5,6.1v7.8c0,0.4-0.1,0.8-0.4,1c-0.3,0.3-0.6,0.4-1,0.4
			h-6c-0.4,0-0.7-0.1-1-0.4c-0.3-0.3-0.4-0.6-0.4-1v-7.8c-2-0.3-3.9-0.7-5.7-1.4c-1.8-0.7-3.3-1.3-4.5-2c-1.2-0.7-2.3-1.4-3.3-2.1
			c-1-0.8-1.7-1.3-2.1-1.7c-0.4-0.4-0.6-0.6-0.8-0.8c-0.5-0.6-0.5-1.2-0.1-1.8l4.6-6c0.2-0.3,0.6-0.5,1-0.5c0.4-0.1,0.8,0.1,1.1,0.4
			l0.1,0.1c3.4,2.9,7,4.8,10.8,5.6c1.1,0.2,2.2,0.4,3.3,0.4c2.4,0,4.5-0.6,6.4-1.9c1.8-1.3,2.7-3.1,2.7-5.4c0-0.8-0.2-1.6-0.7-2.4
			c-0.4-0.7-0.9-1.4-1.5-1.9c-0.6-0.5-1.4-1.1-2.6-1.7c-1.2-0.6-2.2-1.1-2.9-1.4c-0.8-0.3-2-0.8-3.6-1.5c-1.2-0.5-2.1-0.8-2.7-1.1
			c-0.7-0.3-1.6-0.7-2.7-1.2c-1.2-0.5-2.1-1-2.8-1.4c-0.7-0.4-1.5-0.9-2.5-1.6c-1-0.7-1.8-1.3-2.4-1.9c-0.6-0.6-1.3-1.3-1.9-2.2
			c-0.7-0.8-1.2-1.7-1.6-2.6c-0.4-0.9-0.7-1.9-0.9-3c-0.3-1.1-0.4-2.3-0.4-3.5c0-4.1,1.5-7.7,4.4-10.8c2.9-3.1,6.7-5.1,11.4-6v-8
			c0-0.4,0.1-0.7,0.4-1c0.3-0.3,0.6-0.4,1-0.4h6c0.4,0,0.8,0.1,1,0.4c0.3,0.3,0.4,0.6,0.4,1v7.9c1.7,0.2,3.3,0.5,4.9,1
			c1.6,0.5,2.9,1,3.9,1.5s1.9,1,2.8,1.7s1.5,1.1,1.7,1.3c0.3,0.2,0.5,0.4,0.7,0.6c0.5,0.5,0.6,1.1,0.2,1.7l-3.6,6.5
			c-0.2,0.4-0.6,0.7-1,0.7c-0.4,0.1-0.8,0-1.2-0.3c-0.1-0.1-0.3-0.3-0.6-0.5c-0.3-0.3-0.9-0.7-1.7-1.2c-0.8-0.5-1.7-1-2.6-1.4
			c-0.9-0.4-2-0.8-3.3-1.2c-1.3-0.3-2.6-0.5-3.8-0.5c-2.8,0-5.1,0.6-6.9,1.9s-2.7,2.9-2.7,5c0,0.8,0.1,1.5,0.4,2.1
			c0.3,0.7,0.7,1.3,1.3,1.9c0.6,0.6,1.2,1.1,1.8,1.5c0.6,0.4,1.4,0.9,2.5,1.4c1.1,0.5,2,0.9,2.7,1.2c0.7,0.3,1.7,0.7,3.1,1.2
			c1.6,0.6,2.8,1.1,3.6,1.4c0.8,0.3,2,0.9,3.4,1.6s2.6,1.3,3.4,1.9c0.8,0.6,1.7,1.3,2.8,2.2s1.8,1.9,2.4,2.8c0.6,1,1,2.1,1.4,3.4
			S85.9,76.7,85.9,78.2z"/>
	</g>
</g>
</svg>
