<?xml version="1.0" encoding="utf-8"?>
<!-- Generator: Adobe Illustrator 16.0.0, SVG Export Plug-In . SVG Version: 6.00 Build 0)  -->
<!DOCTYPE svg PUBLIC "-//W3C//DTD SVG 1.1//EN" "http://www.w3.org/Graphics/SVG/1.1/DTD/svg11.dtd">
<svg version="1.1" id="Layer_1" xmlns="http://www.w3.org/2000/svg" xmlns:xlink="http://www.w3.org/1999/xlink" x="0px" y="0px"
	 width="595.279px" height="841.891px" viewBox="0 0 595.279 841.891" enable-background="new 0 0 595.279 841.891"
	 xml:space="preserve">
<g>
	<circle fill="none" stroke="#5BBC2E" stroke-width="2" stroke-miterlimit="10" cx="297.64" cy="420.945" r="288.039"/>
	<g>
		<g enable-background="new    ">
			<path fill="#5BBC2E" d="M476.977,286.193v233.174c0,9.43-3.359,17.504-10.073,24.218c-6.718,6.717-14.787,10.072-24.218,10.072
				H326.099c0,5.288,1.142,10.823,3.429,16.609c2.284,5.787,4.571,10.856,6.858,15.217c2.284,4.356,3.429,7.464,3.429,9.322
				c0,3.714-1.359,6.929-4.071,9.645c-2.716,2.712-5.931,4.072-9.645,4.072H216.37c-3.717,0-6.932-1.36-9.644-4.072
				c-2.716-2.716-4.072-5.931-4.072-9.645c0-2.002,1.142-5.144,3.429-9.43c2.284-4.286,4.571-9.286,6.858-15.002
				c2.284-5.713,3.429-11.285,3.429-16.717H99.783c-9.43,0-17.504-3.355-24.218-10.072c-6.717-6.714-10.073-14.788-10.073-24.218
				V286.193c0-9.43,3.355-17.5,10.073-24.217c6.714-6.714,14.788-10.073,24.218-10.073h342.903c9.431,0,17.5,3.359,24.218,10.073
				C473.617,268.693,476.977,276.763,476.977,286.193z M449.544,464.503v-178.31c0-1.855-0.68-3.462-2.036-4.822
				c-1.359-1.356-2.967-2.036-4.822-2.036H99.783c-1.859,0-3.466,0.68-4.822,2.036c-1.359,1.359-2.036,2.967-2.036,4.822v178.31
				c0,1.858,0.677,3.466,2.036,4.822c1.356,1.359,2.963,2.035,4.822,2.035h342.903c1.855,0,3.463-0.676,4.822-2.035
				C448.865,467.969,449.544,466.361,449.544,464.503z"/>
		</g>
		<path fill="#DEDEE0" d="M439.192,463.536h-337.25c-1.589,0-2.876-1.286-2.876-2.875V290.276c0-1.589,1.287-2.876,2.876-2.876
			h337.25c1.589,0,2.876,1.287,2.876,2.876v170.385C442.068,462.25,440.781,463.536,439.192,463.536z"/>
		<g>
			<g>
				<defs>
					<path id="SVGID_1_" d="M439.192,463.536h-337.25c-1.589,0-2.876-1.286-2.876-2.875V290.276c0-1.589,1.287-2.876,2.876-2.876
						h337.25c1.589,0,2.876,1.287,2.876,2.876v170.385C442.068,462.25,440.781,463.536,439.192,463.536z"/>
				</defs>
				<clipPath id="SVGID_2_">
					<use xlink:href="#SVGID_1_"  overflow="visible"/>
				</clipPath>
				<rect x="97.689" y="284.386" clip-path="url(#SVGID_2_)" fill="#CCCCD2" width="347.571" height="18.535"/>
			</g>
			<g>
				<defs>
					<path id="SVGID_3_" d="M439.192,463.536h-337.25c-1.589,0-2.876-1.286-2.876-2.875V290.276c0-1.589,1.287-2.876,2.876-2.876
						h337.25c1.589,0,2.876,1.287,2.876,2.876v170.385C442.068,462.25,440.781,463.536,439.192,463.536z"/>
				</defs>
				<clipPath id="SVGID_4_">
					<use xlink:href="#SVGID_3_"  overflow="visible"/>
				</clipPath>
				<circle clip-path="url(#SVGID_4_)" fill="#F9F9F9" cx="106.44" cy="295.552" r="3.087"/>
			</g>
			<g>
				<defs>
					<path id="SVGID_5_" d="M439.192,463.536h-337.25c-1.589,0-2.876-1.286-2.876-2.875V290.276c0-1.589,1.287-2.876,2.876-2.876
						h337.25c1.589,0,2.876,1.287,2.876,2.876v170.385C442.068,462.25,440.781,463.536,439.192,463.536z"/>
				</defs>
				<clipPath id="SVGID_6_">
					<use xlink:href="#SVGID_5_"  overflow="visible"/>
				</clipPath>
				<circle clip-path="url(#SVGID_6_)" fill="#F9F9F9" cx="116.041" cy="295.552" r="3.087"/>
			</g>
			<g>
				<defs>
					<path id="SVGID_7_" d="M439.192,463.536h-337.25c-1.589,0-2.876-1.286-2.876-2.875V290.276c0-1.589,1.287-2.876,2.876-2.876
						h337.25c1.589,0,2.876,1.287,2.876,2.876v170.385C442.068,462.25,440.781,463.536,439.192,463.536z"/>
				</defs>
				<clipPath id="SVGID_8_">
					<use xlink:href="#SVGID_7_"  overflow="visible"/>
				</clipPath>
				<circle clip-path="url(#SVGID_8_)" fill="#F9F9F9" cx="125.643" cy="295.552" r="3.087"/>
			</g>
		</g>
	</g>
	<g>
		<rect x="404.191" y="436.432" fill="#DEDEE0" width="107.597" height="202.261"/>
		<g>
			<g enable-background="new    ">
				<path fill="#008329" d="M519.928,445.261v174.653c0,5.914-2.161,11.03-6.481,15.351c-4.322,4.323-9.439,6.481-15.351,6.481
					H410.77c-5.914,0-11.03-2.158-15.351-6.481c-4.323-4.32-6.481-9.437-6.481-15.351V445.261c0-5.911,2.158-11.028,6.481-15.351
					c4.32-4.32,9.437-6.481,15.351-6.481h87.326c5.911,0,11.028,2.161,15.351,6.481C517.767,434.232,519.928,439.35,519.928,445.261
					z M503.554,592.625V472.55c0-1.476-0.541-2.755-1.62-3.837c-1.082-1.08-2.361-1.621-3.838-1.621H410.77
					c-1.479,0-2.759,0.541-3.838,1.621c-1.082,1.082-1.62,2.361-1.62,3.837v120.075c0,1.479,0.538,2.758,1.62,3.837
					c1.079,1.082,2.358,1.621,3.838,1.621h87.326c1.477,0,2.756-0.539,3.838-1.621C503.013,595.383,503.554,594.104,503.554,592.625
					z M470.807,447.989c0-1.817-0.911-2.729-2.729-2.729h-27.289c-1.82,0-2.729,0.911-2.729,2.729c0,1.82,0.909,2.729,2.729,2.729
					h27.289C469.896,450.719,470.807,449.81,470.807,447.989z M464.07,629.551c2.67-2.67,4.008-5.884,4.008-9.637
					c0-3.752-1.338-6.963-4.008-9.637c-2.673-2.67-5.885-4.008-9.637-4.008s-6.966,1.338-9.637,4.008
					c-2.673,2.674-4.008,5.885-4.008,9.637c0,3.753,1.335,6.967,4.008,9.637c2.671,2.673,5.885,4.009,9.637,4.009
					S461.397,632.224,464.07,629.551z"/>
			</g>
		</g>
	</g>
	<g enable-background="new    ">
		<path fill="#A3A5A8" d="M248.231,325.62c7.814-3.342,16.005-5.013,24.573-5.013c8.567,0,16.758,1.671,24.573,5.013
			c7.814,3.343,14.546,7.838,20.195,13.487c5.649,5.649,10.145,12.381,13.487,20.195c3.342,7.814,5.014,16.006,5.014,24.573
			c0,8.568-1.672,16.759-5.014,24.573c-3.343,7.815-7.838,14.547-13.487,20.195c-5.648,5.649-12.381,10.144-20.195,13.487
			c-7.814,3.342-16.006,5.014-24.573,5.014c-8.568,0-16.759-1.672-24.573-5.014c-7.814-3.344-14.546-7.838-20.195-13.487
			c-5.649-5.648-10.145-12.38-13.487-20.195c-3.343-7.813-5.014-16.004-5.014-24.573c0-8.567,1.67-16.758,5.014-24.573
			c3.342-7.814,7.838-14.546,13.487-20.195S240.416,328.963,248.231,325.62z M249.396,439.446
			c7.461,3.201,15.264,4.802,23.408,4.802c8.144,0,15.946-1.601,23.408-4.802c7.461-3.202,13.886-7.497,19.277-12.887
			c5.39-5.39,9.686-11.815,12.887-19.277c3.201-7.46,4.802-15.263,4.802-23.408c0-8.144-1.601-15.946-4.802-23.408
			c-3.201-7.46-7.497-13.886-12.887-19.277c-5.391-5.39-11.815-9.685-19.277-12.887c-7.461-3.201-15.264-4.801-23.408-4.801
			c-8.145,0-15.947,1.601-23.408,4.801c-7.461,3.202-13.887,7.497-19.277,12.887c-5.391,5.391-9.686,11.817-12.887,19.277
			c-3.202,7.461-4.802,15.264-4.802,23.408c0,8.145,1.6,15.948,4.802,23.408c3.201,7.462,7.496,13.888,12.887,19.277
			C235.509,431.949,241.934,436.244,249.396,439.446z M218.503,383.875c0-7.672,1.577-15.04,4.731-22.102l25.915,70.965
			c-9.227-4.472-16.641-11.086-22.243-19.842C221.303,404.141,218.503,394.466,218.503,383.875z M309.451,381.121
			c0,0.895-0.06,1.801-0.177,2.719c-0.118,0.918-0.353,2.083-0.706,3.495c-0.353,1.413-0.624,2.448-0.812,3.107
			c-0.188,0.66-0.601,2.048-1.235,4.167c-0.636,2.118-1.049,3.484-1.236,4.095l-5.366,18.077l-19.63-58.326
			c2.165-0.141,4.237-0.329,6.214-0.565c0.894-0.094,1.506-0.529,1.836-1.306c0.329-0.777,0.27-1.506-0.177-2.189
			c-0.448-0.682-1.119-1-2.012-0.953l-14.476,0.706c-3.531-0.046-8.286-0.282-14.264-0.706c-0.565-0.046-1.048,0.07-1.448,0.353
			c-0.4,0.282-0.67,0.635-0.812,1.059c-0.141,0.424-0.176,0.859-0.106,1.306c0.071,0.448,0.283,0.836,0.636,1.166
			c0.353,0.33,0.812,0.519,1.377,0.564l5.649,0.565l8.474,23.161l-11.863,35.588l-19.771-58.749
			c2.165-0.141,4.237-0.329,6.214-0.565c0.894-0.094,1.506-0.529,1.836-1.306c0.329-0.777,0.27-1.506-0.177-2.189
			c-0.448-0.682-1.119-1-2.012-0.953l-14.476,0.706c-0.33,0-0.872-0.011-1.624-0.035c-0.753-0.023-1.366-0.036-1.836-0.036
			c4.943-7.531,11.404-13.498,19.383-17.9c7.979-4.401,16.629-6.603,25.95-6.603c6.92,0,13.522,1.248,19.807,3.743
			c6.285,2.496,11.898,6.002,16.841,10.521h-0.706c-2.59,0-4.756,0.954-6.496,2.86c-1.742,1.907-2.613,4.155-2.613,6.744
			c0,0.565,0.047,1.13,0.142,1.695c0.094,0.564,0.188,1.071,0.282,1.518c0.094,0.448,0.283,0.988,0.565,1.624
			c0.282,0.635,0.494,1.13,0.636,1.483c0.141,0.353,0.424,0.882,0.847,1.589c0.424,0.706,0.718,1.2,0.883,1.482
			c0.165,0.283,0.505,0.848,1.024,1.695c0.518,0.848,0.847,1.389,0.988,1.624C307.969,371.189,309.451,376.178,309.451,381.121z
			 M273.722,388.605l16.735,45.687c0.046,0.282,0.165,0.54,0.353,0.776c-5.931,2.071-11.933,3.107-18.006,3.107
			c-5.273,0-10.38-0.754-15.323-2.26L273.722,388.605z M320.397,357.819c4.472,8.191,6.708,16.876,6.708,26.056
			c0,9.839-2.448,18.914-7.344,27.221c-4.896,8.309-11.464,14.864-19.701,19.665l16.594-47.875
			c2.777-7.955,4.167-14.451,4.167-19.489C320.821,361.42,320.679,359.561,320.397,357.819z"/>
	</g>
</g>
</svg>
