<?xml version="1.0" encoding="utf-8"?>
<!-- Generator: Adobe Illustrator 16.0.0, SVG Export Plug-In . SVG Version: 6.00 Build 0)  -->
<!DOCTYPE svg PUBLIC "-//W3C//DTD SVG 1.1//EN" "http://www.w3.org/Graphics/SVG/1.1/DTD/svg11.dtd">
<svg version="1.1" id="Layer_1" xmlns="http://www.w3.org/2000/svg" xmlns:xlink="http://www.w3.org/1999/xlink" x="0px" y="0px"
	 width="595.279px" height="841.891px" viewBox="0 0 595.279 841.891" enable-background="new 0 0 595.279 841.891"
	 xml:space="preserve">
<g>
	<circle fill="none" stroke="#5BBC2E" stroke-width="2" stroke-miterlimit="10" cx="297.64" cy="420.945" r="288.039"/>
	<g>
		<g>
			<path fill="#5BBC2E" d="M451.319,419.274H431.04v149.387h20.278v60.829H390.49v-20.278H267.766v20.278h-60.829v-60.829h20.278
				v-68.284h-60.829v20.277h-60.824V459.83h20.277V358.45h-20.277v-60.829h60.824v20.278h141.931v-20.278h60.829v60.829h-20.278
				v20.273h41.622V358.45h60.829V419.274z M125.834,317.899v20.278h20.278v-20.278H125.834z M146.108,500.377v-20.273h-20.278
				v20.273H146.108z M166.386,480.104h141.931V459.83h20.277V358.45h-20.277v-20.278H166.386v20.278h-20.273v101.38h20.273V480.104z
				 M247.488,609.212v-20.277h-20.272v20.277H247.488z M410.767,568.661V419.274H390.49v-20.278h-41.622v60.834h20.278v60.824
				h-60.829v-20.277h-60.824v68.284h20.278v20.277h122.724v-20.277H410.767z M328.59,317.899v20.278h20.277v-20.278H328.59z
				 M348.867,480.104H328.59v20.273h20.277V480.104z M410.767,378.724v20.277h20.278v-20.277H410.767z M431.045,609.212v-20.277
				h-20.278v20.277H431.045z"/>
			<path fill="#B0E44F" d="M350.447,401.742h38.405v19.203h24.004v148.82h-24.004v19.202H268.836v-19.202h-19.202v-67.21H225.63
				v67.21h-19.202v62.408h62.408V608.17h120.016v24.004h62.409v-62.408h-19.203v-148.82h19.203v-62.409h-62.409v19.203h-38.405
				V401.742z M249.634,608.17H225.63v-19.202h24.004V608.17z M432.058,608.17h-19.202v-19.202h19.202V608.17z M412.856,377.739
				h19.202v24.003h-19.202V377.739z"/>
		</g>
	</g>
	<g enable-background="new    ">
		<path fill="#008329" d="M330.042,223.997l54.606,54.607L275.435,387.818h-54.607v-54.607L330.042,223.997z M268.478,371.016
			l11.945-11.945l-30.847-30.848l-11.945,11.945v14.045h16.802v16.802H268.478z M337.13,249.201c0-1.924-0.964-2.888-2.888-2.888
			c-0.876,0-1.62,0.308-2.231,0.919l-71.146,71.146c-0.613,0.613-0.919,1.358-0.919,2.231c0,1.926,0.962,2.888,2.888,2.888
			c0.874,0,1.618-0.306,2.231-0.919l71.146-71.146C336.823,250.821,337.13,250.076,337.13,249.201z M419.697,236.599
			c0,4.64-1.62,8.578-4.856,11.814l-21.79,21.79l-54.607-54.607l21.791-21.659c3.15-3.325,7.088-4.988,11.813-4.988
			c4.638,0,8.618,1.664,11.945,4.988l30.848,30.716C418.076,228.066,419.697,232.05,419.697,236.599z"/>
	</g>
</g>
</svg>
