<?xml version="1.0" encoding="utf-8"?>
<!-- Generator: Adobe Illustrator 19.1.0, SVG Export Plug-In . SVG Version: 6.00 Build 0)  -->
<svg version="1.1" id="Layer_1" xmlns="http://www.w3.org/2000/svg" xmlns:xlink="http://www.w3.org/1999/xlink" x="0px" y="0px"
	 viewBox="0 0 135.2 131.1" style="enable-background:new 0 0 135.2 131.1;" xml:space="preserve">
<style type="text/css">
	.st0{fill:#5BBC2E;}
	.st1{fill:#FFFFFF;}
</style>
<circle class="st0" cx="67.6" cy="65.5" r="60"/>
<g>
	<path class="st1" d="M90.9,44.5c0.6,0.7,0.8,1.5,0.4,2.3l-28.8,61.7c-0.5,0.9-1.2,1.3-2.2,1.3c-0.1,0-0.4,0-0.7-0.1
		c-0.6-0.2-1.1-0.5-1.4-1c-0.3-0.5-0.4-1-0.2-1.6l10.5-43.1l-21.6,5.4c-0.1,0-0.4,0.1-0.6,0.1c-0.6,0-1.2-0.2-1.7-0.6
		c-0.6-0.5-0.9-1.2-0.7-2.1l10.7-44c0.1-0.5,0.4-0.9,0.9-1.2c0.4-0.3,0.9-0.5,1.5-0.5h17.5c0.7,0,1.2,0.2,1.7,0.7
		c0.5,0.4,0.7,1,0.7,1.6c0,0.3-0.1,0.6-0.3,1l-9.1,24.7l21.1-5.2c0.3-0.1,0.5-0.1,0.6-0.1C89.8,43.7,90.4,44,90.9,44.5z"/>
</g>
</svg>
