<?xml version="1.0" encoding="utf-8"?>
<!-- Generator: Adobe Illustrator 19.1.0, SVG Export Plug-In . SVG Version: 6.00 Build 0)  -->
<svg version="1.1" id="Layer_1" xmlns="http://www.w3.org/2000/svg" xmlns:xlink="http://www.w3.org/1999/xlink" x="0px" y="0px"
	 viewBox="0 0 28.289 23.616" enable-background="new 0 0 28.289 23.616" xml:space="preserve">
<g>
	<path fill="#5BBC2E" d="M26.219,5.625c0,0.417-0.146,0.771-0.438,1.063L14.469,18l-2.125,2.125
		c-0.292,0.292-0.646,0.438-1.063,0.438c-0.417,0-0.771-0.146-1.063-0.438L8.094,18l-5.656-5.656C2.146,12.053,2,11.698,2,11.281
		c0-0.416,0.146-0.771,0.438-1.063l2.125-2.125c0.292-0.291,0.646-0.438,1.063-0.438c0.417,0,0.771,0.146,1.063,0.438l4.594,4.609
		l10.25-10.266C21.823,2.146,22.177,2,22.594,2c0.417,0,0.771,0.146,1.063,0.438l2.125,2.125
		C26.073,4.854,26.219,5.209,26.219,5.625z"/>
</g>
</svg>
