<?xml version="1.0" encoding="utf-8"?>
<!-- Generator: Adobe Illustrator 19.1.0, SVG Export Plug-In . SVG Version: 6.00 Build 0)  -->
<svg version="1.1" id="Layer_1" xmlns="http://www.w3.org/2000/svg" xmlns:xlink="http://www.w3.org/1999/xlink" x="0px" y="0px"
	 viewBox="171 160.5 270 250" style="enable-background:new 171 160.5 270 250;" xml:space="preserve">
<style type="text/css">
	.st0{fill:#60BCFF;}
	.st1{opacity:0.15;clip-path:url(#SVGID_3_);}
	.st2{fill:#ED1E79;}
	.st3{fill:#FFD112;}
	.st4{fill:#FF931E;}
</style>
<g>
	<g>
		<g>
			<polygon id="SVGID_1_" class="st0" points="190.2,231.5 195.5,348.7 302.2,325.9 302.2,238.1 			"/>
		</g>
		<g>
			<defs>
				<polygon id="SVGID_2_" points="190.2,231.5 195.5,348.7 302.2,325.9 302.2,238.1 				"/>
			</defs>
			<clipPath id="SVGID_3_">
				<use xlink:href="#SVGID_2_"  style="overflow:visible;"/>
			</clipPath>
			<g class="st1">
				
					<image style="overflow:visible;enable-background:new    ;" width="212" height="219" xlink:href="ADA9F755.png"  transform="matrix(1 0 0 1 175.2475 187.1716)">
				</image>
			</g>
		</g>
	</g>
	<polygon class="st2" points="287.7,205.8 311.2,255.4 359.9,258.9 327.1,302.2 338.1,357.7 292.8,336.6 248.9,366 257.2,309.7 
		220.3,272.7 267.7,259.5 	"/>
	<polygon class="st3" points="299.6,181.1 305.5,395.7 424.2,353.9 424.2,193.1 	"/>
	<polygon class="st4" points="311.2,255.4 301.1,234 304.1,341.9 338.1,357.7 327.1,302.2 359.9,258.9 	"/>
</g>
</svg>
