<?xml version="1.0" encoding="utf-8"?>
<!-- Generator: Adobe Illustrator 16.0.0, SVG Export Plug-In . SVG Version: 6.00 Build 0)  -->
<!DOCTYPE svg PUBLIC "-//W3C//DTD SVG 1.1//EN" "http://www.w3.org/Graphics/SVG/1.1/DTD/svg11.dtd">
<svg version="1.1" id="Layer_1" xmlns="http://www.w3.org/2000/svg" xmlns:xlink="http://www.w3.org/1999/xlink" x="0px" y="0px"
	 width="595.279px" height="841.891px" viewBox="0 0 595.279 841.891" enable-background="new 0 0 595.279 841.891"
	 xml:space="preserve">
<g>
	<circle fill="none" stroke="#5BBC2E" stroke-width="2" stroke-miterlimit="10" cx="297.64" cy="420.945" r="288.039"/>
	<g>
		<g>
			<g enable-background="new    ">
				<path fill="#5BBC2E" d="M500.977,286.193v233.174c0,9.43-3.359,17.504-10.073,24.218c-6.718,6.717-14.787,10.072-24.218,10.072
					H350.099c0,5.288,1.142,10.823,3.429,16.609c2.284,5.787,4.571,10.856,6.858,15.217c2.284,4.356,3.429,7.464,3.429,9.322
					c0,3.714-1.359,6.929-4.071,9.645c-2.716,2.712-5.931,4.072-9.645,4.072H240.37c-3.717,0-6.932-1.36-9.644-4.072
					c-2.716-2.716-4.072-5.931-4.072-9.645c0-2.002,1.142-5.144,3.429-9.43c2.284-4.286,4.571-9.286,6.858-15.002
					c2.284-5.713,3.429-11.285,3.429-16.717H123.783c-9.43,0-17.504-3.355-24.218-10.072c-6.717-6.714-10.073-14.788-10.073-24.218
					V286.193c0-9.43,3.355-17.5,10.073-24.217c6.714-6.714,14.788-10.073,24.218-10.073h342.903c9.431,0,17.5,3.359,24.218,10.073
					C497.617,268.693,500.977,276.763,500.977,286.193z M473.544,464.503v-178.31c0-1.855-0.68-3.462-2.036-4.822
					c-1.359-1.356-2.967-2.036-4.822-2.036H123.783c-1.859,0-3.466,0.68-4.822,2.036c-1.359,1.359-2.036,2.967-2.036,4.822v178.31
					c0,1.858,0.677,3.466,2.036,4.822c1.356,1.359,2.963,2.035,4.822,2.035h342.903c1.855,0,3.463-0.676,4.822-2.035
					C472.865,467.969,473.544,466.361,473.544,464.503z"/>
			</g>
			<path fill="#DEDEE0" d="M463.195,463.536h-337.25c-1.589,0-2.875-1.286-2.875-2.875V290.276c0-1.589,1.286-2.876,2.875-2.876
				h337.25c1.59,0,2.876,1.287,2.876,2.876v170.385C466.071,462.25,464.784,463.536,463.195,463.536z"/>
			<g>
				<g>
					<defs>
						<path id="SVGID_1_" d="M463.195,463.536h-337.25c-1.589,0-2.875-1.286-2.875-2.875V290.276c0-1.589,1.286-2.876,2.875-2.876
							h337.25c1.59,0,2.876,1.287,2.876,2.876v170.385C466.071,462.25,464.784,463.536,463.195,463.536z"/>
					</defs>
					<clipPath id="SVGID_2_">
						<use xlink:href="#SVGID_1_"  overflow="visible"/>
					</clipPath>
					<rect x="121.692" y="284.386" clip-path="url(#SVGID_2_)" fill="#CCCCD2" width="347.571" height="18.535"/>
				</g>
				<g>
					<defs>
						<path id="SVGID_4_" d="M463.195,463.536h-337.25c-1.589,0-2.875-1.286-2.875-2.875V290.276c0-1.589,1.286-2.876,2.875-2.876
							h337.25c1.59,0,2.876,1.287,2.876,2.876v170.385C466.071,462.25,464.784,463.536,463.195,463.536z"/>
					</defs>
					<clipPath id="SVGID_5_">
						<use xlink:href="#SVGID_4_"  overflow="visible"/>
					</clipPath>
					<circle clip-path="url(#SVGID_5_)" fill="#F9F9F9" cx="130.444" cy="295.552" r="3.087"/>
				</g>
				<g>
					<defs>
						<path id="SVGID_6_" d="M463.195,463.536h-337.25c-1.589,0-2.875-1.286-2.875-2.875V290.276c0-1.589,1.286-2.876,2.875-2.876
							h337.25c1.59,0,2.876,1.287,2.876,2.876v170.385C466.071,462.25,464.784,463.536,463.195,463.536z"/>
					</defs>
					<clipPath id="SVGID_7_">
						<use xlink:href="#SVGID_6_"  overflow="visible"/>
					</clipPath>
					<circle clip-path="url(#SVGID_7_)" fill="#F9F9F9" cx="140.044" cy="295.552" r="3.087"/>
				</g>
				<g>
					<defs>
						<path id="SVGID_8_" d="M463.195,463.536h-337.25c-1.589,0-2.875-1.286-2.875-2.875V290.276c0-1.589,1.286-2.876,2.875-2.876
							h337.25c1.59,0,2.876,1.287,2.876,2.876v170.385C466.071,462.25,464.784,463.536,463.195,463.536z"/>
					</defs>
					<clipPath id="SVGID_9_">
						<use xlink:href="#SVGID_8_"  overflow="visible"/>
					</clipPath>
					<circle clip-path="url(#SVGID_9_)" fill="#F9F9F9" cx="149.646" cy="295.552" r="3.087"/>
				</g>
			</g>
		</g>
		<g>
			<g>
				<g>
					<rect id="SVGID_3_" x="196.826" y="349.252" fill="#F9F9F9" width="264.035" height="104.87"/>
				</g>
				<g>
					<defs>
						<rect id="SVGID_10_" x="196.826" y="349.252" width="264.035" height="104.87"/>
					</defs>
					<clipPath id="SVGID_11_">
						<use xlink:href="#SVGID_10_"  overflow="visible"/>
					</clipPath>
					<polygon clip-path="url(#SVGID_11_)" fill="#B0E44F" stroke="#5BBC2E" stroke-miterlimit="10" points="185.713,439.461 
						230.34,419.26 275.12,429.125 322.742,411.195 350.529,425.573 388.382,411.253 416.407,407.954 451.928,387.994 
						472.864,391.815 472.864,462.49 184.623,463.709 					"/>
				</g>
			</g>
			<rect x="196.826" y="310.103" fill="#B0E44F" width="82.571" height="31.723"/>
			<rect x="287.559" y="310.103" fill="#6BDC37" width="82.571" height="31.723"/>
			<rect x="378.291" y="310.103" fill="#5BBC2E" width="82.57" height="31.723"/>
		</g>
		<rect x="129.617" y="310.103" fill="#F9F9F9" width="62.408" height="14.402"/>
		<rect x="129.617" y="329.512" fill="#F9F9F9" width="62.408" height="14.402"/>
		<rect x="129.617" y="349.252" fill="#F9F9F9" width="62.408" height="14.402"/>
		<rect x="129.617" y="368.268" fill="#F9F9F9" width="62.408" height="14.402"/>
	</g>
</g>
</svg>
